<svg xmlns="http://www.w3.org/2000/svg" viewBox="0 0 576 320"><defs><style>.cls-1{opacity:0.8;}.cls-2{fill:#fff;}</style></defs><title>Icon (White)</title><g id="AS"><g id="AS-2" data-name="AS"><g id="A"><g class="cls-1"><polygon class="cls-2" points="229.08 106.54 17.7 228.59 64.5 8 208.5 8 229.08 106.54"/></g><polygon class="cls-2" points="272 312 0 312 17.7 228.59 229.08 106.54 272 312"/></g><g id="S"><g class="cls-1"><path class="cls-2" d="M568,95.34l-68.06,39.3-86.76,50.09a112.89,112.89,0,0,1-43.41-27.47C353.68,140.64,344,119.29,344,96c0-53,50.14-96,112-96C517.6,0,567.58,42.62,568,95.34Z"/></g><path class="cls-2" d="M576,224c0,53-53.73,96-120,96-64.1,0-116.46-40.21-119.82-90.82l77-44.45,86.76-50.09a125.15,125.15,0,0,1,42.31,22.62C563.14,174.52,576,198.06,576,224Z"/></g></g></g></svg>