<svg xmlns="http://www.w3.org/2000/svg" viewBox="0 0 2320 320"><defs><style>.cls-1{opacity:0.8;}</style></defs><title>Logo (Black)</title><g id="Full"><g id="AS_Arpit_Sheth_-_Black" data-name="AS Arpit Sheth - Black"><path d="M808.78,230.45H747.85l-8.7,38.38H703.82L746.57,89.72h63.49l42.75,179.11H817.49ZM755,198.21h46.34l-20.74-91.6H776Z"/><path d="M871,141.92h53.76v18.42h4.61a31,31,0,0,1,12.16-16.25q8.58-5.75,20.61-5.75,18.95,0,30.46,11.89t11.52,36.21v5.63l-33.28,3.07v-3.58q0-10.5-5.37-16.76t-16.13-6.27q-10.75,0-16.9,7.42t-6.14,21.24v40.93h29.18v30.71H867.89V238.12H894v-65.5H871Z"/><path d="M1055.21,320H1023V141.92h32.26v18.42h4.61a37.58,37.58,0,0,1,14.84-16.25q9.73-5.75,24.84-5.75a53.52,53.52,0,0,1,21.37,4.35,50.81,50.81,0,0,1,17.67,12.66,62.37,62.37,0,0,1,12,20.34,78.26,78.26,0,0,1,4.48,27.38v4.61q0,15.6-4.35,27.63a61.71,61.71,0,0,1-11.78,20.34,48.12,48.12,0,0,1-17.54,12.54,61.05,61.05,0,0,1-37,2.43,40.52,40.52,0,0,1-11.13-4.86,33.34,33.34,0,0,1-7.94-7,50.87,50.87,0,0,1-5.5-8.31h-4.61ZM1089,241.71q15.11,0,24.45-9.34t9.34-25.46v-3.07q0-16.12-9.34-25.46T1089,169q-15.11,0-24.45,9.59t-9.34,25.21v3.07q0,15.6,9.34,25.2T1089,241.71Z"/><path d="M1176.27,238.12h43v-65.5h-39.94v-30.7h72.19v96.2h36.87v30.71H1176.27Zm83.2-133.81a24.05,24.05,0,0,1-1.92,9.59,23.1,23.1,0,0,1-5.25,7.68,25.65,25.65,0,0,1-7.81,5.11,23.45,23.45,0,0,1-9.34,1.92,23.17,23.17,0,0,1-9.47-1.92,25.9,25.9,0,0,1-7.68-5.11,23.1,23.1,0,0,1-5.25-7.68,24.94,24.94,0,0,1,0-19.19A23.16,23.16,0,0,1,1218,87a26.13,26.13,0,0,1,7.68-5.12,23.17,23.17,0,0,1,9.47-1.92,23.45,23.45,0,0,1,9.34,1.92A25.86,25.86,0,0,1,1252.3,87a23.16,23.16,0,0,1,5.25,7.67A24.13,24.13,0,0,1,1259.47,104.31Z"/><path d="M1295.21,141.92h37.63V89.72h32.26v52.2h45.82v30.7H1365.1v57.83q0,7.67,6.91,7.67h34.3v30.71h-53.76q-8.7,0-14.21-5.63a19.64,19.64,0,0,1-5.5-14.33V172.62h-37.63Z"/><path d="M1701.22,144.48q0-10.75-8.32-18.68t-23.42-7.93q-12.81,0-20.23,5.24a16.51,16.51,0,0,0-7.42,14.2,19,19,0,0,0,1.79,8.32,17.16,17.16,0,0,0,6.27,6.65,48.26,48.26,0,0,0,11.78,5.25,158.32,158.32,0,0,0,18.56,4.35q28.15,5.12,43,17.14t14.85,35.56v3.07a55.43,55.43,0,0,1-4.48,22.65,47.72,47.72,0,0,1-12.93,17.27,58.87,58.87,0,0,1-20.48,11,89.14,89.14,0,0,1-27.14,3.84q-17.65,0-31.1-5a62.23,62.23,0,0,1-22.4-13.82A58.15,58.15,0,0,1,1606,232.88a71.35,71.35,0,0,1-4.61-26v-7.68h33.79v6.14q0,16.13,9.35,25.72t29.06,9.59q15.36,0,22.78-6.65t7.42-15.86a23,23,0,0,0-1.53-8.32,17.74,17.74,0,0,0-5.38-7.16,37.58,37.58,0,0,0-10.49-5.76,93.81,93.81,0,0,0-16.9-4.35,171.81,171.81,0,0,1-24.83-6,69.07,69.07,0,0,1-19.59-9.85,42.46,42.46,0,0,1-12.93-15.36q-4.61-9.21-4.6-22.51v-1.54A46.39,46.39,0,0,1,1612,117a49.24,49.24,0,0,1,12.54-16.25A58.08,58.08,0,0,1,1644,90a79.39,79.39,0,0,1,25.47-3.84,82.09,82.09,0,0,1,28.16,4.48,60.44,60.44,0,0,1,20.61,12.15,50.87,50.87,0,0,1,12.54,17.66,53.17,53.17,0,0,1,4.22,21v9.21h-33.79Z"/><path d="M1795.1,268.83h-32.26V89.72h32.26v72.67h4.61A38.73,38.73,0,0,1,1814,144.61q9.46-6.27,23.3-6.27a47.85,47.85,0,0,1,17.41,3.07,37.79,37.79,0,0,1,13.82,9.21,42.54,42.54,0,0,1,9.22,15.73,69.5,69.5,0,0,1,3.32,22.65v79.83h-32.25V196.67q0-13.56-6.53-21.36t-18.82-7.8q-14.34,0-21.37,9.59t-7,25.71Z"/><path d="M1941.09,215.86a24.9,24.9,0,0,0,2.69,10.37,25.55,25.55,0,0,0,6.66,8.18,31.51,31.51,0,0,0,9.73,5.38,35,35,0,0,0,11.64,1.92q12,0,18.44-4.23a25.27,25.27,0,0,0,9.21-10.1l27.65,15.35a54.56,54.56,0,0,1-6.4,10.11,45,45,0,0,1-10.62,9.59,59.23,59.23,0,0,1-15.88,7.16,76,76,0,0,1-21.88,2.82,71.17,71.17,0,0,1-26.12-4.61,57.74,57.74,0,0,1-20.35-13.3,60,60,0,0,1-13.31-21.24,79.82,79.82,0,0,1-4.74-28.4v-1.53a68.71,68.71,0,0,1,5-26.61,60.24,60.24,0,0,1,13.69-20.47,63,63,0,0,1,20.35-13.18,65.8,65.8,0,0,1,25-4.73q16.39,0,28.16,5.75a60.72,60.72,0,0,1,19.46,14.59,57.6,57.6,0,0,1,11.27,19.44,64.53,64.53,0,0,1,3.58,20.6v17.14Zm30.47-48.35q-12.29,0-20,6.26t-10,14.46h59.9q-1.53-9-9.6-14.84T1971.56,167.51Z"/><path d="M2054.83,141.92h37.64V89.72h32.25v52.2h45.83v30.7h-45.83v57.83q0,7.67,6.91,7.67h34.31v30.71h-53.76q-8.7,0-14.21-5.63a19.64,19.64,0,0,1-5.5-14.33V172.62h-37.64Z"/><path d="M2234,268.83h-32.25V89.72H2234v72.67h4.61a38.69,38.69,0,0,1,14.34-17.78q9.46-6.27,23.29-6.27a47.78,47.78,0,0,1,17.41,3.07,37.75,37.75,0,0,1,13.83,9.21,42.53,42.53,0,0,1,9.21,15.73A69.22,69.22,0,0,1,2320,189v79.83h-32.26V196.67q0-13.56-6.52-21.36t-18.82-7.8q-14.34,0-21.38,9.59t-7,25.71Z"/><g id="AS"><g id="A"><g class="cls-1"><polygon points="229.08 106.54 17.7 228.59 64.5 8 208.5 8 229.08 106.54"/></g><polygon points="272 312 0 312 17.7 228.59 229.08 106.54 272 312"/></g><g id="S"><g class="cls-1"><path d="M568,95.34l-68.06,39.3-86.76,50.09a112.89,112.89,0,0,1-43.41-27.47C353.68,140.64,344,119.29,344,96c0-53,50.14-96,112-96C517.6,0,567.58,42.62,568,95.34Z"/></g><path d="M576,224c0,53-53.73,96-120,96-64.1,0-116.46-40.21-119.82-90.82l77-44.45,86.76-50.09a125.15,125.15,0,0,1,42.31,22.62C563.14,174.52,576,198.06,576,224Z"/></g></g></g></g></svg>