<?xml version="1.0" encoding="utf-8"?>
<!-- Generator: Adobe Illustrator 19.0.0, SVG Export Plug-In . SVG Version: 6.00 Build 0)  -->
<svg version="1.1"
	 id="svg2" xmlns:dc="http://purl.org/dc/elements/1.1/" xmlns:cc="http://creativecommons.org/ns#" xmlns:rdf="http://www.w3.org/1999/02/22-rdf-syntax-ns#" xmlns:svg="http://www.w3.org/2000/svg"
	 xmlns="http://www.w3.org/2000/svg" xmlns:xlink="http://www.w3.org/1999/xlink" x="0px" y="0px" viewBox="520 -220 500 100"
	 style="enable-background:new 520 -220 500 100;" xml:space="preserve">
<style type="text/css">
	.st0{fill:#1E1C1B;}
	.st1{fill:#4F4F51;}
	.st2{fill:#656668;}
	.st3{fill:#8A8B8B;}
</style>
<g id="g10" transform="matrix(1.3333333,0,0,-1.3333333,0,1000)">
	<g id="g12" transform="scale(0.1)">
		<path id="path14" class="st0" d="M4426.5,9033.5l-21-25.4l111.6-64.4v-337.5l-292.3-168.7l-292.3,168.7v337.5l292.3,168.7
			l122.4-70.6l32.5,18.7l-154.8,89.4L3900,8962.5v-375l324.8-187.5l324.8,187.5v375L4426.5,9033.5"/>
		<path id="path16" class="st0" d="M4447.5,8858.9l-8.1,14.1l14.1,8.1l8.1-14.1L4447.5,8858.9 M4447.5,8826.4l-8.1,14.1l14.1,8.1
			l8.1-14.1L4447.5,8826.4 M4447.5,8793.9l-8.1,14.1l14.1,8.1l8.1-14.1L4447.5,8793.9 M4447.5,8761.5l-8.1,14.1l14.1,8.1l8.1-14.1
			L4447.5,8761.5 M4447.5,8729l-8.1,14.1l14.1,8.1l8.1-14.1L4447.5,8729 M4447.5,8696.5l-8.1,14.1l14.1,8.1l8.1-14.1L4447.5,8696.5
			 M4447.5,8664l-8.1,14.1l14.1,8.1l8.1-14.1L4447.5,8664 M4447.5,8631.6l-8.1,14.1l14.1,8.1l8.1-14.1L4447.5,8631.6 M4419.4,8842.6
			l-8.1,14.1l14.1,8.1l8.1-14.1L4419.4,8842.6 M4419.4,8810.2l-8.1,14.1l14.1,8.1l8.1-14.1L4419.4,8810.2 M4419.4,8777.7l-8.1,14.1
			l14.1,8.1l8.1-14.1L4419.4,8777.7 M4419.4,8745.2l-8.1,14.1l14.1,8.1l8.1-14.1L4419.4,8745.2 M4419.4,8712.7l-8.1,14.1l14.1,8.1
			l8.1-14.1L4419.4,8712.7 M4419.4,8680.3l-8.1,14.1l14.1,8.1l8.1-14.1L4419.4,8680.3 M4419.4,8647.8l-8.1,14.1l14.1,8.1l8.1-14.1
			L4419.4,8647.8 M4419.4,8615.3l-8.1,14.1l14.1,8.1l8.1-14.1L4419.4,8615.3 M4391.3,8826.4l-8.1,14.1l14.1,8.1l8.1-14.1
			L4391.3,8826.4 M4391.3,8793.9l-8.1,14.1l14.1,8.1l8.1-14.1L4391.3,8793.9 M4391.3,8761.5l-8.1,14.1l14.1,8.1l8.1-14.1
			L4391.3,8761.5 M4391.3,8729l-8.1,14.1l14.1,8.1l8.1-14.1L4391.3,8729 M4391.3,8696.5l-8.1,14.1l14.1,8.1l8.1-14.1L4391.3,8696.5
			 M4391.3,8664l-8.1,14.1l14.1,8.1l8.1-14.1L4391.3,8664 M4391.3,8631.6l-8.1,14.1l14.1,8.1l8.1-14.1L4391.3,8631.6 M4391.3,8599.1
			l-8.1,14.1l14.1,8.1l8.1-14.1L4391.3,8599.1 M4363.1,8810.2l-8.1,14.1l14.1,8.1l8.1-14.1L4363.1,8810.2 M4363.1,8777.7l-8.1,14.1
			l14.1,8.1l8.1-14.1L4363.1,8777.7 M4363.1,8745.2l-8.1,14.1l14.1,8.1l8.1-14.1L4363.1,8745.2 M4363.1,8712.7l-8.1,14.1l14.1,8.1
			l8.1-14.1L4363.1,8712.7 M4363.1,8680.3l-8.1,14.1l14.1,8.1l8.1-14.1L4363.1,8680.3 M4363.1,8647.8l-8.1,14.1l14.1,8.1l8.1-14.1
			L4363.1,8647.8 M4363.1,8615.3l-8.1,14.1l14.1,8.1l8.1-14.1L4363.1,8615.3 M4363.1,8582.8l-8.1,14.1l14.1,8.1l8.1-14.1
			L4363.1,8582.8 M4335,8793.9l-8.1,14.1l14.1,8.1l8.1-14.1L4335,8793.9 M4335,8761.5l-8.1,14.1l14.1,8.1l8.1-14.1L4335,8761.5
			 M4335,8729l-8.1,14.1l14.1,8.1l8.1-14.1L4335,8729 M4335,8696.5l-8.1,14.1l14.1,8.1l8.1-14.1L4335,8696.5 M4335,8664l-8.1,14.1
			l14.1,8.1l8.1-14.1L4335,8664 M4335,8631.6l-8.1,14.1l14.1,8.1l8.1-14.1L4335,8631.6 M4335,8599.1l-8.1,14.1l14.1,8.1l8.1-14.1
			L4335,8599.1 M4335,8566.6l-8.1,14.1l14.1,8.1l8.1-14.1L4335,8566.6 M4306.9,8777.7l-8.1,14.1l14.1,8.1l8.1-14.1L4306.9,8777.7
			 M4306.9,8745.2l-8.1,14.1l14.1,8.1l8.1-14.1L4306.9,8745.2 M4306.9,8712.7l-8.1,14.1l14.1,8.1l8.1-14.1L4306.9,8712.7
			 M4306.9,8680.3l-8.1,14.1l14.1,8.1l8.1-14.1L4306.9,8680.3 M4306.9,8647.8l-8.1,14.1l14.1,8.1l8.1-14.1L4306.9,8647.8
			 M4306.9,8615.3l-8.1,14.1l14.1,8.1l8.1-14.1L4306.9,8615.3 M4306.9,8582.8l-8.1,14.1l14.1,8.1l8.1-14.1L4306.9,8582.8
			 M4306.9,8550.4l-8.1,14.1l14.1,8.1l8.1-14.1L4306.9,8550.4 M4278.8,8761.5l-8.1,14.1l14.1,8.1l8.1-14.1L4278.8,8761.5
			 M4278.8,8729l-8.1,14.1l14.1,8.1l8.1-14.1L4278.8,8729 M4278.8,8696.5l-8.1,14.1l14.1,8.1l8.1-14.1L4278.8,8696.5 M4278.8,8664
			l-8.1,14.1l14.1,8.1l8.1-14.1L4278.8,8664 M4278.8,8631.6l-8.1,14.1l14.1,8.1l8.1-14.1L4278.8,8631.6 M4278.8,8599.1l-8.1,14.1
			l14.1,8.1l8.1-14.1L4278.8,8599.1 M4278.8,8566.6l-8.1,14.1l14.1,8.1l8.1-14.1L4278.8,8566.6 M4278.8,8534.1l-8.1,14.1l14.1,8.1
			l8.1-14.1L4278.8,8534.1 M4250.6,8745.2l-8.1,14.1l14.1,8.1l8.1-14.1L4250.6,8745.2 M4250.6,8712.7l-8.1,14.1l14.1,8.1l8.1-14.1
			L4250.6,8712.7 M4250.6,8680.3l-8.1,14.1l14.1,8.1l8.1-14.1L4250.6,8680.3 M4250.6,8647.8l-8.1,14.1l14.1,8.1l8.1-14.1
			L4250.6,8647.8 M4250.6,8615.3l-8.1,14.1l14.1,8.1l8.1-14.1L4250.6,8615.3 M4250.6,8582.8l-8.1,14.1l14.1,8.1l8.1-14.1
			L4250.6,8582.8 M4250.6,8550.4l-8.1,14.1l14.1,8.1l8.1-14.1L4250.6,8550.4 M4250.6,8517.9l-8.1,14.1l14.1,8.1l8.1-14.1
			L4250.6,8517.9 M4222.5,8729l-8.1,14.1l14.1,8.1l8.1-14.1L4222.5,8729 M4222.5,8696.5l-8.1,14.1l14.1,8.1l8.1-14.1L4222.5,8696.5
			 M4222.5,8664l-8.1,14.1l14.1,8.1l8.1-14.1L4222.5,8664 M4222.5,8631.6l-8.1,14.1l14.1,8.1l8.1-14.1L4222.5,8631.6 M4222.5,8599.1
			l-8.1,14.1l14.1,8.1l8.1-14.1L4222.5,8599.1 M4222.5,8566.6l-8.1,14.1l14.1,8.1l8.1-14.1L4222.5,8566.6 M4222.5,8534.1l-8.1,14.1
			l14.1,8.1l8.1-14.1L4222.5,8534.1 M4222.5,8501.7l-8.1,14.1l14.1,8.1l8.1-14.1L4222.5,8501.7 M4373.9,8970.1l-17.1-20.7l67.2-51.5
			l-0.7-10.8l-260.2-150.2l-8.3,9.8l132.8,160l-67.2,51.6l0.7,10.8l77.3,44.7l-73.7,42.5l-243.6-140.6v-281.2l243.6-140.6
			l243.6,140.6v281.2L4373.9,8970.1"/>
		<path id="path18" class="st1" d="M4222.5,8501.7l-8.1,14.1l14,8.1l8.1-14.1L4222.5,8501.7"/>
		<path id="path20" class="st0" d="M4222.5,8501.7l-8.1,14.1l0,0L4222.5,8501.7L4222.5,8501.7"/>
		<path id="path22" class="st1" d="M4250.6,8517.9l-8.1,14.1l14,8.1l8.1-14.1L4250.6,8517.9"/>
		<path id="path24" class="st0" d="M4250.6,8517.9l-8.1,14.1l0,0L4250.6,8517.9L4250.6,8517.9"/>
		<path id="path26" class="st1" d="M4278.8,8534.1l-8.1,14.1l14,8.1l8.1-14.1L4278.8,8534.1"/>
		<path id="path28" class="st0" d="M4278.8,8534.1l-8.1,14.1l0,0L4278.8,8534.1L4278.8,8534.1"/>
		<path id="path30" class="st1" d="M4306.9,8550.4l-8.1,14.1l14,8.1l8.1-14.1L4306.9,8550.4"/>
		<path id="path32" class="st0" d="M4306.9,8550.4l-8.1,14.1l0,0L4306.9,8550.4L4306.9,8550.4"/>
		<path id="path34" class="st1" d="M4335,8566.6l-8.1,14.1l14,8.1l8.1-14.1L4335,8566.6"/>
		<path id="path36" class="st0" d="M4335,8566.6l-8.1,14.1l0,0L4335,8566.6L4335,8566.6"/>
		<path id="path38" class="st1" d="M4363.1,8582.9l-0.8,1.3l-7.3,12.7l14,8.1l7.4-12.8l0.7-1.3L4363.1,8582.9"/>
		<path id="path40" class="st0" d="M4362.4,8584.2l-7.3,12.7l0,0L4362.4,8584.2 M4377.2,8591l-0.7,1.3L4377.2,8591L4377.2,8591"/>
		<path id="path42" class="st1" d="M4391.3,8599.1l-0.7,1.3l-7.4,12.8l14,8.1l7.4-12.8l0.7-1.3L4391.3,8599.1"/>
		<path id="path44" class="st0" d="M4390.5,8600.4l-7.4,12.8l0,0L4390.5,8600.4 M4405.3,8607.2l-0.7,1.3L4405.3,8607.2
			L4405.3,8607.2"/>
		<path id="path46" class="st1" d="M4419.4,8615.3l-1.2,2l-6.9,12l14,8.1l6.9-12l1.2-2L4419.4,8615.3"/>
		<path id="path48" class="st0" d="M4418.2,8617.4l-6.9,12l0,0L4418.2,8617.4 M4433.4,8623.5l-1.2,2L4433.4,8623.5L4433.4,8623.5"/>
		<path id="path50" class="st1" d="M4447.5,8631.6l-1.2,2l-6.9,12l14.1,8.1l6.5-11.3l1.6-2.8L4447.5,8631.6"/>
		<path id="path52" class="st0" d="M4446.3,8633.6l-6.9,12l0,0L4446.3,8633.6 M4461.6,8639.7l-1.6,2.8L4461.6,8639.7L4461.6,8639.7"
			/>
		<path id="path54" class="st1" d="M4222.5,8534.1l-8.1,14.1l14,8.1l8.1-14.1L4222.5,8534.1"/>
		<path id="path56" class="st0" d="M4222.5,8534.1l-8.1,14.1l0,0L4222.5,8534.1L4222.5,8534.1"/>
		<path id="path58" class="st1" d="M4250.6,8550.4l-8.1,14.1l14,8.1l8.1-14.1L4250.6,8550.4"/>
		<path id="path60" class="st0" d="M4250.6,8550.4l-8.1,14.1l0,0L4250.6,8550.4L4250.6,8550.4"/>
		<path id="path62" class="st1" d="M4278.8,8566.6l-8.1,14.1l14,8.1l8.1-14.1L4278.8,8566.6"/>
		<path id="path64" class="st0" d="M4278.8,8566.6l-8.1,14.1l0,0L4278.8,8566.6L4278.8,8566.6"/>
		<path id="path66" class="st1" d="M4306.9,8582.9l-8.1,14.1l14,8.1l8.1-14.1L4306.9,8582.9"/>
		<path id="path68" class="st0" d="M4306.9,8582.9l-8.1,14.1l0,0L4306.9,8582.9L4306.9,8582.9"/>
		<path id="path70" class="st1" d="M4335,8599.1l-8.1,14.1l14,8.1l8.1-14.1L4335,8599.1"/>
		<path id="path72" class="st0" d="M4335,8599.1l-8.1,14.1l0,0L4335,8599.1L4335,8599.1"/>
		<path id="path74" class="st1" d="M4363.1,8615.3l-0.8,1.3l-7.3,12.7l14,8.1l7.4-12.8l0.7-1.3L4363.1,8615.3"/>
		<path id="path76" class="st0" d="M4362.4,8616.7l-7.3,12.7l0,0L4362.4,8616.7 M4377.2,8623.5l-0.7,1.3L4377.2,8623.5
			L4377.2,8623.5"/>
		<path id="path78" class="st1" d="M4391.3,8631.6l-0.7,1.3l-7.4,12.8l14,8.1l7.4-12.8l0.7-1.3L4391.3,8631.6"/>
		<path id="path80" class="st0" d="M4390.5,8632.8l-7.4,12.8l0,0L4390.5,8632.8 M4405.3,8639.7l-0.7,1.3L4405.3,8639.7
			L4405.3,8639.7"/>
		<path id="path82" class="st1" d="M4419.4,8647.8l-1.2,2l-6.9,12l14,8.1l6.9-12l1.2-2L4419.4,8647.8"/>
		<path id="path84" class="st0" d="M4418.2,8649.8l-6.9,12l0,0L4418.2,8649.8 M4433.4,8655.9l-1.2,2L4433.4,8655.9L4433.4,8655.9"/>
		<path id="path86" class="st1" d="M4447.5,8664l-1.2,2l-6.9,12l14.1,8.1l6.5-11.3l1.6-2.8L4447.5,8664"/>
		<path id="path88" class="st0" d="M4446.3,8666.1l-6.9,12l0,0L4446.3,8666.1 M4461.6,8672.2l-1.6,2.8L4461.6,8672.2L4461.6,8672.2"
			/>
		<path id="path90" class="st1" d="M4222.5,8566.6l-8.1,14.1l14,8.1l8.1-14.1L4222.5,8566.6"/>
		<path id="path92" class="st0" d="M4222.5,8566.6l-8.1,14.1l0,0L4222.5,8566.6L4222.5,8566.6"/>
		<path id="path94" class="st1" d="M4250.6,8582.9l-8.1,14.1l14,8.1l8.1-14.1L4250.6,8582.9"/>
		<path id="path96" class="st0" d="M4250.6,8582.9l-8.1,14.1l0,0L4250.6,8582.9L4250.6,8582.9"/>
		<path id="path98" class="st1" d="M4278.8,8599.1l-8.1,14.1l14,8.1l8.1-14.1L4278.8,8599.1"/>
		<path id="path100" class="st0" d="M4278.8,8599.1l-8.1,14.1l0,0L4278.8,8599.1L4278.8,8599.1"/>
		<path id="path102" class="st1" d="M4306.9,8615.3l-8.1,14.1l14,8.1l8.1-14.1L4306.9,8615.3"/>
		<path id="path104" class="st0" d="M4306.9,8615.3l-8.1,14.1l0,0L4306.9,8615.3L4306.9,8615.3"/>
		<path id="path106" class="st1" d="M4335,8631.6l-8.1,14.1l14,8.1l8.1-14.1L4335,8631.6"/>
		<path id="path108" class="st0" d="M4335,8631.6l-8.1,14.1l0,0L4335,8631.6L4335,8631.6"/>
		<path id="path110" class="st1" d="M4363.1,8647.8l-0.8,1.3l-7.3,12.7l14,8.1l7.4-12.8l0.7-1.3L4363.1,8647.8"/>
		<path id="path112" class="st0" d="M4362.4,8649.1l-7.3,12.7l0,0L4362.4,8649.1 M4377.2,8655.9l-0.7,1.3L4377.2,8655.9
			L4377.2,8655.9"/>
		<path id="path114" class="st1" d="M4391.3,8664l-0.7,1.3l-7.4,12.8l14,8.1l7.4-12.8l0.7-1.3L4391.3,8664"/>
		<path id="path116" class="st0" d="M4390.5,8665.3l-7.4,12.8l0,0L4390.5,8665.3 M4405.3,8672.2l-0.7,1.3L4405.3,8672.2
			L4405.3,8672.2"/>
		<path id="path118" class="st1" d="M4419.4,8680.3l-1.2,2l-6.9,12l14,8.1l6.9-12l1.2-2L4419.4,8680.3"/>
		<path id="path120" class="st0" d="M4418.2,8682.3l-6.9,12l0,0L4418.2,8682.3 M4433.4,8688.4l-1.2,2L4433.4,8688.4L4433.4,8688.4"
			/>
		<path id="path122" class="st1" d="M4447.5,8696.5l-1.2,2l-6.9,12l14.1,8.1l6.5-11.3l1.6-2.8L4447.5,8696.5"/>
		<path id="path124" class="st0" d="M4446.3,8698.6l-6.9,12l0,0L4446.3,8698.6 M4461.6,8704.6l-1.6,2.8L4461.6,8704.6L4461.6,8704.6
			"/>
		<path id="path126" class="st1" d="M4222.5,8599.1l-8.1,14.1l14,8.1l8.1-14.1L4222.5,8599.1"/>
		<path id="path128" class="st0" d="M4222.5,8599.1l-8.1,14.1l0,0L4222.5,8599.1L4222.5,8599.1"/>
		<path id="path130" class="st1" d="M4250.6,8615.3l-8.1,14.1l14,8.1l8.1-14.1L4250.6,8615.3"/>
		<path id="path132" class="st0" d="M4250.6,8615.3l-8.1,14.1l0,0L4250.6,8615.3L4250.6,8615.3"/>
		<path id="path134" class="st1" d="M4278.8,8631.6l-8.1,14.1l14,8.1l8.1-14.1L4278.8,8631.6"/>
		<path id="path136" class="st0" d="M4278.8,8631.6l-8.1,14.1l0,0L4278.8,8631.6L4278.8,8631.6"/>
		<path id="path138" class="st1" d="M4306.9,8647.8l-8.1,14.1l14,8.1l8.1-14.1L4306.9,8647.8"/>
		<path id="path140" class="st0" d="M4306.9,8647.8l-8.1,14.1l0,0L4306.9,8647.8L4306.9,8647.8"/>
		<path id="path142" class="st1" d="M4335,8664l-8.1,14.1l14,8.1l8.1-14.1L4335,8664"/>
		<path id="path144" class="st0" d="M4335,8664l-8.1,14.1l0,0L4335,8664L4335,8664"/>
		<path id="path146" class="st1" d="M4363.1,8680.3l-0.8,1.3l-7.3,12.7l14,8.1l7.4-12.8l0.7-1.3L4363.1,8680.3"/>
		<path id="path148" class="st0" d="M4362.4,8681.6l-7.3,12.7l0,0L4362.4,8681.6 M4377.2,8688.4l-0.7,1.3L4377.2,8688.4
			L4377.2,8688.4"/>
		<path id="path150" class="st1" d="M4391.3,8696.5l-0.7,1.3l-7.4,12.8l14,8.1l7.4-12.8l0.7-1.3L4391.3,8696.5"/>
		<path id="path152" class="st0" d="M4390.5,8697.8l-7.4,12.8l0,0L4390.5,8697.8 M4405.3,8704.6l-0.7,1.3L4405.3,8704.6
			L4405.3,8704.6"/>
		<path id="path154" class="st1" d="M4419.4,8712.8l-1.2,2l-6.9,12l14,8.1l7-12.1l1.1-2L4419.4,8712.8"/>
		<path id="path156" class="st0" d="M4418.2,8714.8l-6.9,12l0,0L4418.2,8714.8 M4433.4,8720.9l-1.1,2L4433.4,8720.9L4433.4,8720.9"
			/>
		<path id="path158" class="st1" d="M4447.5,8729l-1.2,2l-6.9,12l14.1,8.1l6.8-11.7l1.4-2.4L4447.5,8729"/>
		<path id="path160" class="st0" d="M4446.3,8731l-6.9,12l0,0L4446.3,8731 M4461.6,8737.1l-1.4,2.4L4461.6,8737.1L4461.6,8737.1"/>
		<path id="path162" class="st1" d="M4222.5,8631.6l-8.1,14.1l14,8.1l8.1-14.1L4222.5,8631.6"/>
		<path id="path164" class="st0" d="M4222.5,8631.6l-8.1,14.1l0,0L4222.5,8631.6L4222.5,8631.6"/>
		<path id="path166" class="st1" d="M4250.6,8647.8l-8.1,14.1l14,8.1l8.1-14.1L4250.6,8647.8"/>
		<path id="path168" class="st0" d="M4250.6,8647.8l-8.1,14.1l0,0L4250.6,8647.8L4250.6,8647.8"/>
		<path id="path170" class="st1" d="M4278.8,8664l-8.1,14.1l14,8.1l8.1-14.1L4278.8,8664"/>
		<path id="path172" class="st0" d="M4278.8,8664l-8.1,14.1l0,0L4278.8,8664L4278.8,8664"/>
		<path id="path174" class="st1" d="M4306.9,8680.3l-8.1,14.1l14,8.1l8.1-14.1L4306.9,8680.3"/>
		<path id="path176" class="st0" d="M4306.9,8680.3l-8.1,14.1l0,0L4306.9,8680.3L4306.9,8680.3"/>
		<path id="path178" class="st1" d="M4335,8696.5l-8.1,14.1l14,8.1l8.1-14.1L4335,8696.5"/>
		<path id="path180" class="st0" d="M4335,8696.5l-8.1,14.1l0,0L4335,8696.5L4335,8696.5"/>
		<path id="path182" class="st1" d="M4363.1,8712.8l-0.8,1.3l-7.3,12.7l14,8.1l7.4-12.8l0.7-1.2L4363.1,8712.8"/>
		<path id="path184" class="st0" d="M4362.4,8714.1l-7.3,12.7l0,0L4362.4,8714.1 M4377.2,8720.9l-0.7,1.2L4377.2,8720.9
			L4377.2,8720.9"/>
		<path id="path186" class="st1" d="M4391.3,8729l-0.7,1.3l-7.4,12.8l14,8.1l7.6-13.2l0.5-0.8L4391.3,8729"/>
		<path id="path188" class="st0" d="M4390.5,8730.3l-7.4,12.8l0,0L4390.5,8730.3 M4405.3,8737.1l-0.5,0.8L4405.3,8737.1
			L4405.3,8737.1"/>
		<path id="path190" class="st1" d="M4419.4,8745.2l-1.2,2l-6.9,12l14,8.1l7.2-12.4l0.9-1.6L4419.4,8745.2"/>
		<path id="path192" class="st0" d="M4418.2,8747.3l-6.9,12l0,0L4418.2,8747.3 M4433.4,8753.4l-0.9,1.6L4433.4,8753.4L4433.4,8753.4
			"/>
		<path id="path194" class="st1" d="M4447.5,8761.5l-1.2,2l-6.9,12l14.1,8.1l6.5-11.3l1.6-2.8L4447.5,8761.5"/>
		<path id="path196" class="st0" d="M4446.3,8763.5l-6.9,12l0,0L4446.3,8763.5 M4461.6,8769.6l-1.6,2.8L4461.6,8769.6L4461.6,8769.6
			"/>
		<path id="path198" class="st2" d="M4222.5,8664l-8.1,14.1l14,8.1l8.1-14.1L4222.5,8664"/>
		<path id="path200" class="st0" d="M4222.5,8664l-8.1,14.1l0,0L4222.5,8664L4222.5,8664"/>
		<path id="path202" class="st2" d="M4250.6,8680.3l-8.1,14.1l14,8.1l8.1-14.1L4250.6,8680.3"/>
		<path id="path204" class="st0" d="M4250.6,8680.3l-8.1,14.1l0,0L4250.6,8680.3L4250.6,8680.3"/>
		<path id="path206" class="st2" d="M4278.8,8696.5l-8.1,14.1l14,8.1l8.1-14.1L4278.8,8696.5"/>
		<path id="path208" class="st0" d="M4278.8,8696.5l-8.1,14.1l0,0L4278.8,8696.5L4278.8,8696.5"/>
		<path id="path210" class="st2" d="M4306.9,8712.8l-8.1,14.1l14,8.1l8.1-14.1L4306.9,8712.8"/>
		<path id="path212" class="st0" d="M4306.9,8712.8l-8.1,14.1l0,0L4306.9,8712.8L4306.9,8712.8"/>
		<path id="path214" class="st2" d="M4335,8729l-8.1,14.1l14,8.1l8.1-14.1L4335,8729"/>
		<path id="path216" class="st0" d="M4335,8729l-8.1,14.1l0,0L4335,8729L4335,8729"/>
		<path id="path218" class="st2" d="M4363.1,8745.2l-0.8,1.3l-7.3,12.7l14,8.1l7.6-13.2l0.5-0.8L4363.1,8745.2"/>
		<path id="path220" class="st0" d="M4362.4,8746.6l-7.3,12.7l0,0L4362.4,8746.6 M4377.2,8753.4l-0.5,0.8L4377.2,8753.4
			L4377.2,8753.4"/>
		<path id="path222" class="st2" d="M4391.3,8761.5l-0.7,1.3l-7.4,12.8l14,8.1l7.4-12.8l0.7-1.3L4391.3,8761.5"/>
		<path id="path224" class="st0" d="M4390.5,8762.7l-7.4,12.8l0,0L4390.5,8762.7 M4405.3,8769.6l-0.7,1.3L4405.3,8769.6
			L4405.3,8769.6"/>
		<path id="path226" class="st2" d="M4419.4,8777.7l-1.2,2l-6.9,12l14,8.1l6.9-12l1.2-2L4419.4,8777.7"/>
		<path id="path228" class="st0" d="M4418.2,8779.7l-6.9,12l0,0L4418.2,8779.7 M4433.4,8785.8l-1.2,2L4433.4,8785.8L4433.4,8785.8"
			/>
		<path id="path230" class="st2" d="M4447.5,8794l-1.2,2l-6.9,12l14.1,8.1l6.5-11.3l1.6-2.8L4447.5,8794"/>
		<path id="path232" class="st0" d="M4446.3,8796l-6.9,12l0,0L4446.3,8796 M4461.6,8802.1l-1.6,2.8L4461.6,8802.1L4461.6,8802.1"/>
		<path id="path234" class="st3" d="M4222.5,8696.5l-8.1,14.1l14,8.1l8.1-14.1L4222.5,8696.5"/>
		<path id="path236" class="st0" d="M4222.5,8696.5l-8.1,14.1l0,0L4222.5,8696.5L4222.5,8696.5"/>
		<path id="path238" class="st3" d="M4250.6,8712.8l-8.1,14.1l14,8.1l8.1-14.1L4250.6,8712.8"/>
		<path id="path240" class="st0" d="M4250.6,8712.8l-8.1,14.1l0,0L4250.6,8712.8L4250.6,8712.8"/>
		<path id="path242" class="st3" d="M4278.8,8729l-8.1,14.1l14,8.1l8.1-14.1L4278.8,8729"/>
		<path id="path244" class="st0" d="M4278.8,8729l-8.1,14.1l0,0L4278.8,8729L4278.8,8729"/>
		<path id="path246" class="st3" d="M4306.9,8745.2l-8.1,14.1l14,8.1l8.1-14.1L4306.9,8745.2"/>
		<path id="path248" class="st0" d="M4306.9,8745.2l-8.1,14.1l0,0L4306.9,8745.2L4306.9,8745.2"/>
		<path id="path250" class="st3" d="M4335,8761.5l-8.1,14.1l14,8.1l8.1-14.1L4335,8761.5"/>
		<path id="path252" class="st0" d="M4335,8761.5l-8.1,14.1l0,0L4335,8761.5L4335,8761.5"/>
		<path id="path254" class="st3" d="M4363.1,8777.7l-0.8,1.3l-7.3,12.7l14,8.1l7.4-12.8l0.7-1.3L4363.1,8777.7"/>
		<path id="path256" class="st0" d="M4362.4,8779l-7.3,12.7l0,0L4362.4,8779 M4377.2,8785.8l-0.7,1.3L4377.2,8785.8L4377.2,8785.8"
			/>
		<path id="path258" class="st3" d="M4391.3,8794l-0.7,1.3l-7.4,12.8l14,8.1l7.4-12.8l0.7-1.3L4391.3,8794"/>
		<path id="path260" class="st0" d="M4390.5,8795.2l-7.4,12.8l0,0L4390.5,8795.2 M4405.3,8802.1l-0.7,1.3L4405.3,8802.1
			L4405.3,8802.1"/>
		<path id="path262" class="st3" d="M4419.4,8810.2l-1.2,2l-6.9,12l14,8.1l6.9-12l1.2-2L4419.4,8810.2"/>
		<path id="path264" class="st0" d="M4418.2,8812.2l-6.9,12l0,0L4418.2,8812.2 M4433.4,8818.3l-1.2,2L4433.4,8818.3L4433.4,8818.3"
			/>
		<path id="path266" class="st3" d="M4447.5,8826.4l-1.2,2l-6.9,12l14.1,8.1l6.5-11.3l1.6-2.8L4447.5,8826.4"/>
		<path id="path268" class="st0" d="M4446.3,8828.5l-6.9,12l0,0L4446.3,8828.5 M4461.6,8834.5l-1.6,2.8L4461.6,8834.5L4461.6,8834.5
			"/>
		<path id="path270" class="st3" d="M4222.5,8729l-8.1,14.1l14,8.1l8.1-14.1L4222.5,8729"/>
		<path id="path272" class="st0" d="M4222.5,8729l-8.1,14.1l0,0L4222.5,8729L4222.5,8729"/>
		<path id="path274" class="st3" d="M4250.6,8745.2l-8.1,14.1l14,8.1l8.1-14.1L4250.6,8745.2"/>
		<path id="path276" class="st0" d="M4250.6,8745.2l-8.1,14.1l0,0L4250.6,8745.2L4250.6,8745.2"/>
		<path id="path278" class="st3" d="M4278.8,8761.5l-8.1,14.1l14,8.1l8.1-14.1L4278.8,8761.5"/>
		<path id="path280" class="st0" d="M4278.8,8761.5l-8.1,14.1l0,0L4278.8,8761.5L4278.8,8761.5"/>
		<path id="path282" class="st3" d="M4306.9,8777.7l-8.1,14.1l14,8.1l8.1-14.1L4306.9,8777.7"/>
		<path id="path284" class="st0" d="M4306.9,8777.7l-8.1,14.1l0,0L4306.9,8777.7L4306.9,8777.7"/>
		<path id="path286" class="st3" d="M4335,8794l-8.1,14.1l14,8.1l8.1-14.1L4335,8794"/>
		<path id="path288" class="st0" d="M4335,8794l-8.1,14.1l0,0L4335,8794L4335,8794"/>
		<path id="path290" class="st3" d="M4363.1,8810.2l-0.8,1.3l-7.3,12.7l14,8.1l7.4-12.8l0.7-1.3L4363.1,8810.2"/>
		<path id="path292" class="st0" d="M4362.4,8811.5l-7.3,12.7l0,0L4362.4,8811.5 M4377.2,8818.3l-0.7,1.3L4377.2,8818.3
			L4377.2,8818.3"/>
		<path id="path294" class="st3" d="M4391.3,8826.4l-0.7,1.3l-7.4,12.8l14,8.1l7.4-12.8l0.7-1.3L4391.3,8826.4"/>
		<path id="path296" class="st0" d="M4390.5,8827.7l-7.4,12.8l0,0L4390.5,8827.7 M4405.3,8834.5l-0.7,1.3L4405.3,8834.5
			L4405.3,8834.5"/>
		<path id="path298" class="st3" d="M4419.4,8842.7l-1.2,2l-6.9,12l14,8.1l6.9-12l1.2-2L4419.4,8842.7"/>
		<path id="path300" class="st0" d="M4418.2,8844.7l-6.9,12l0,0L4418.2,8844.7 M4433.4,8850.8l-1.2,2L4433.4,8850.8L4433.4,8850.8"
			/>
		<path id="path302" class="st3" d="M4447.5,8858.9l-1.2,2l-6.9,12l14.1,8.1l6.5-11.3l1.6-2.8L4447.5,8858.9"/>
		<path id="path304" class="st0" d="M4446.3,8860.9l-6.9,12l0,0L4446.3,8860.9 M4461.6,8867l-1.6,2.8L4461.6,8867L4461.6,8867"/>
		<path id="path306" class="st0" d="M4919.8,8728.1l-44.6,143.3l-43.3-143.3H4919.8z M4843.4,8622.7v-31.4h-127.2v31.4l29.6,7.2
			c2.9,0.7,5.3,1.9,7.1,3.6c1.8,1.7,3.2,4,4.2,6.9l99.1,292.2h77.3l99.7-292.2c1-2.9,2.5-5.2,4.5-6.8c2-1.6,4.3-2.8,7.1-3.7
			l27.2-7.2v-31.4h-163.3v31.4l41.6,6.8l-18.9,61.4h-110.8l-18.7-61.4L4843.4,8622.7"/>
		<path id="path308" class="st0" d="M5247.1,8622.3v-30.9h-159.8v31.1l23.5,4.4c3.2,0.6,5.7,1.9,7.5,4c1.8,2.1,2.7,4.8,2.7,8.2
			v143.3c0,3.3-0.8,6.2-2.4,8.5c-1.6,2.3-4,3.8-7.2,4.4l-26.6,5.4v32c13.9,4.1,29,7.2,45.1,9.3c16.1,2.1,31.1,3.2,44.9,3.4l12.2-9.6
			l8.3-43.3c9.7,16.5,21,29.6,33.8,39.1c12.8,9.5,26.1,14.3,40.1,14.3c4.9,0,11-0.7,18.3-2.1c7.3-1.4,12.7-3,16.3-4.9
			c0.9-6.2,1.4-13.3,1.5-21c0.1-7.8-0.1-15.8-0.7-24.2c-0.6-8.3-1.5-16.9-2.6-25.6c-1.2-8.7-2.7-17.1-4.6-25.3H5263l-7.6,25.5
			c-1.7,5.4-3.9,8.9-6.4,10.5c-2.5,1.6-6.3,2.4-11.2,2.4c-5.1,0.1-11-0.9-17.9-3.2c-6.8-2.3-13.6-6.1-20.3-11.7V8639
			c0-3.5,0.9-6.3,2.7-8.4c1.8-2.1,4.5-3.4,8-3.8L5247.1,8622.3"/>
		<path id="path310" class="st0" d="M5465.5,8616.8c7.7,0,14.7,1.6,21.1,4.9c6.4,3.3,11.8,8.7,16.2,16.2c4.4,7.5,7.9,17.6,10.5,30.3
			c2.5,12.6,3.9,28.2,4,46.8c0.1,30.3-3.5,52-10.9,65c-7.4,13-18.8,19.5-34.2,19.5c-6.2,0-12.1-0.7-17.6-2.2
			c-5.5-1.5-10.3-3.3-14.4-5.7v-170.1c3.8-1.9,7.8-3.2,12.2-3.8C5456.8,8617.2,5461.2,8616.8,5465.5,8616.8z M5484.5,8514.3v-30.9
			h-156.6v30.9l23.7,4.6c3.2,0.6,5.7,1.9,7.4,4c1.7,2.1,2.6,4.8,2.6,8.2v251.3c0,3.2-0.8,6-2.3,8.3c-1.5,2.3-3.8,3.8-6.9,4.4
			l-27,5.7v32c7.1,1.7,14.7,3.4,22.9,5c8.1,1.6,16.4,2.9,24.7,4c8.3,1.1,16.6,2,24.8,2.6c8.2,0.7,15.9,1,23,1l10.9-9.8l4.4-21.3
			c8.6,9.4,18.7,17.1,30.5,22.9c11.8,5.8,25.4,8.7,40.9,8.7c13.1,0,25.3-2.4,36.7-7.1c11.4-4.7,21.2-11.9,29.4-21.6
			c8.2-9.7,14.7-22,19.4-36.9c4.7-15,7.1-32.6,7.1-52.9c0-22.8-3.2-43-9.5-60.7c-6.3-17.6-15.3-32.4-27-44.2
			c-11.7-11.8-25.8-20.8-42.5-26.9c-16.6-6.1-35.1-9.1-55.4-9.1c-3.9,0-8,0.2-12.3,0.5c-4.3,0.4-8.7,0.9-13.2,1.6V8531
			c0-3.5,0.9-6.3,2.7-8.4c1.8-2.1,4.4-3.4,7.7-3.8L5484.5,8514.3"/>
		<path id="path312" class="st0" d="M5747.1,8913.6c0-12-3.8-21.7-11.5-28.9c-7.7-7.2-18-10.8-30.9-10.8c-13.1,0-23.5,3.6-31.3,10.8
			c-7.8,7.2-11.6,16.8-11.6,28.9c0,11.8,3.9,21.2,11.6,28.2c7.8,7,18.2,10.6,31.3,10.6c12.9,0,23.2-3.5,30.9-10.6
			C5743.2,8934.8,5747.1,8925.4,5747.1,8913.6z M5747.5,8835.5V8639c0-3.3,0.9-6.1,2.7-8.2c1.8-2.1,4.3-3.4,7.5-4l23.5-4.4v-31.1
			h-146.1v31.1l23.5,4.4c3.2,0.6,5.7,1.9,7.5,4c1.8,2.1,2.7,4.8,2.7,8.2v143.5c0,3.2-0.8,6-2.4,8.3c-1.6,2.3-4,3.8-7.2,4.4
			l-26.6,5.4v32c7.8,2,16.2,3.8,25.2,5.4c8.9,1.6,17.9,2.9,27,3.9c9.1,1,18.1,1.8,27,2.3c8.9,0.5,17.3,0.8,25.2,0.8L5747.5,8835.5"
			/>
		<path id="path314" class="st0" d="M5835.9,8664.3v133.5l-33.5,6.1v28.5l27.2,5.7c3.9,0.7,6.9,2,8.8,3.9s3.6,4.6,4.9,8.3l24.2,68.8
			h43.6l2.8-79.9h68.2v-40.3h-67.3v-116.9c0-16.6,2.5-28,7.4-34.2c4.9-6.2,12.3-9.4,22-9.4c5.8,0,12,1.1,18.6,3.2
			c6.6,2.1,12.8,5.6,18.6,10.6l15.2-17.2c-7.4-16.1-18.9-28-34.5-35.7c-15.6-7.7-33.4-11.5-53.5-11.5c-22.4,0-40.1,5.4-53.1,16.1
			C5842.5,8614.5,5835.9,8634.7,5835.9,8664.3"/>
		<path id="path316" class="st0" d="M6380.8,8687.6c0-12.2-2.3-24.5-7-36.9c-4.6-12.4-12.1-23.5-22.3-33.3
			c-10.2-9.8-23.7-17.8-40.3-24c-16.6-6.2-36.7-9.3-60.2-9.3c-22.5,0-43.7,2.6-63.6,7.8c-19.9,5.2-37,11.3-51.4,18.1
			c-0.4,7.8-0.5,16.1-0.3,24.7c0.2,8.6,0.6,17.1,1.1,25.5c0.5,8.3,1.2,16.4,2.2,24.2c0.9,7.8,2,14.8,3.2,21.2h46.8l8.5-56.4
			c0.6-3.3,1.5-6.4,2.8-9.1c1.3-2.8,3.4-5.3,6.3-7.6c4.4-3.9,10.7-7.7,19-11.3c8.3-3.6,17.4-5.4,27.4-5.4c14.4,0,25.6,4,33.6,12
			c8.1,8,12.1,18.4,12.1,31.4c0,9.1-1.9,17.3-5.8,24.4c-3.9,7.1-9.1,13.6-15.7,19.4c-6.6,5.8-14.4,11.3-23.3,16.4
			c-8.9,5.2-18.3,10.3-28.2,15.4c-11.3,6-22.3,12-32.9,18.2c-10.6,6.2-19.9,13.1-27.9,20.9c-8,7.8-14.4,16.8-19.3,27.2
			c-4.9,10.4-7.3,22.7-7.3,36.9c0,14.2,2.6,27.5,7.7,39.7c5.1,12.3,12.8,22.9,23.1,31.8c10.2,8.9,23.1,15.9,38.7,21
			c15.5,5.1,33.6,7.6,54.2,7.6c17.3,0,34.8-1.7,52.5-5c17.7-3.3,33.1-7.7,46.2-13.1c1.2-14.4,1.3-29.4,0.3-45.2
			c-0.9-15.8-2.6-30.6-4.9-44.5h-45.5l-9.1,49.4c-0.9,4.2-2,7.7-3.4,10.5c-1.4,2.8-3.4,5.1-6,7c-3.9,2.9-9,5.2-15.4,7
			c-6.3,1.7-12.6,2.6-18.8,2.6c-13.1,0-23.3-3.7-30.6-11c-7.3-7.3-11-17-11-28.9c0-8.3,1.7-15.5,5-21.8c3.3-6.2,8.1-12,14.3-17.2
			c6.2-5.2,13.8-10.3,22.8-15.2c9-4.9,19.1-10.3,30.3-16.1c12.5-6.4,24.3-13.1,35.5-20.3c11.2-7.1,20.9-15,29.3-23.5
			s15-18.2,19.9-28.9C6378.3,8713.2,6380.8,8701.1,6380.8,8687.6"/>
		<path id="path318" class="st0" d="M6545.2,8622.3v-30.9h-136.7v31.1l23.5,4.4c3.2,0.6,5.7,1.9,7.5,4c1.8,2.1,2.7,4.8,2.7,8.2
			v285.3c0,3.3-0.9,6.1-2.6,8.2c-1.7,2.1-4.2,3.4-7.4,4l-28.3,4.6v30.5c7.8,2,16.3,3.8,25.5,5.3c9.1,1.5,18.4,2.8,27.7,3.7
			c9.3,0.9,18.5,1.6,27.7,2.1c9.1,0.4,17.6,0.7,25.5,0.7l10.7-10.2v-157.7c10,9.7,21.5,17,34.6,21.8c13.1,4.8,27.3,7.2,42.7,7.2
			c29.2,0,49.1-8.2,59.9-24.5c10.8-16.3,16.1-39.4,16.1-69.1V8639c0-3.3,0.9-6.1,2.6-8.2c1.8-2.1,4.2-3.4,7.4-4l23.7-4.4v-31.1
			h-136.8v30.9l14.6,4.4c3.2,1.2,5.6,2.7,7.3,4.6c1.7,1.9,2.5,4.5,2.5,7.8v103c0,20.3-3,34.7-8.9,43.2c-6,8.5-15.4,12.7-28.3,12.7
			c-5.9,0-12.1-0.9-18.6-2.6c-6.5-1.7-12.7-4.4-18.8-7.8V8639c0-3.3,0.8-6,2.4-7.8c1.6-1.9,4-3.4,7.2-4.6L6545.2,8622.3"/>
		<path id="path320" class="st0" d="M6852.7,8813.3c-9.7,0-17.7-4.2-24.1-12.7c-6.3-8.5-10.3-23.6-12.1-45.4h69
			c0.2,1.3,0.2,2.8,0.2,4.5s0,3.5,0,5.6c0,13.9-2.7,25.4-7.9,34.5C6872.5,8808.7,6864.1,8813.3,6852.7,8813.3z M6955.5,8645.6
			c-5.8-19.5-18-34.3-36.6-44.5c-18.6-10.2-40.9-15.4-66.9-15.4c-20,0-37.4,3-52.3,8.9c-14.8,5.9-27,14.4-36.6,25.5
			c-9.6,11-16.7,24.5-21.3,40.3c-4.7,15.8-7,33.5-7,52.9c0,43,10.7,75.7,32.2,98.3c21.5,22.6,51.8,33.9,91,33.9
			c17.3,0,32.2-2.1,44.9-6.3c12.6-4.2,22.9-10.1,30.9-17.5c8-7.5,13.9-16.4,17.7-26.8c3.9-10.4,5.8-21.6,5.8-33.6
			c0-5.5-0.4-11.5-1.1-18c-0.7-6.5-1.6-12.2-2.6-17.3h-138.3c0.1-31.9,4.6-55.3,13.3-70c8.7-14.7,24.5-22.1,47.3-22.1
			c11.9,0,23.5,2,34.7,6.1c11.3,4.1,20.5,10.2,27.8,18.3L6955.5,8645.6"/>
		<path id="path322" class="st0" d="M7018.6,8664.3v133.5l-33.5,6.1v28.5l27.2,5.7c3.9,0.7,6.8,2,8.8,3.9s3.6,4.6,4.9,8.3l24.2,68.8
			h43.6l2.8-79.9h68.2v-40.3h-67.3v-116.9c0-16.6,2.5-28,7.4-34.2c4.9-6.2,12.3-9.4,22-9.4c5.8,0,12,1.1,18.6,3.2
			c6.6,2.1,12.8,5.6,18.6,10.6l15.3-17.2c-7.4-16.1-18.9-28-34.5-35.7c-15.6-7.7-33.4-11.5-53.5-11.5c-22.4,0-40.1,5.4-53.1,16.1
			C7025.1,8614.5,7018.6,8634.7,7018.6,8664.3"/>
		<path id="path324" class="st0" d="M7329.1,8622.3v-30.9h-136.8v31.1l23.5,4.4c3.2,0.6,5.7,1.9,7.5,4c1.8,2.1,2.7,4.8,2.7,8.2
			v285.3c0,3.3-0.9,6.1-2.6,8.2c-1.8,2.1-4.2,3.4-7.4,4l-28.3,4.6v30.5c7.8,2,16.3,3.8,25.5,5.3c9.1,1.5,18.3,2.8,27.6,3.7
			c9.3,0.9,18.5,1.6,27.7,2.1c9.1,0.4,17.6,0.7,25.5,0.7l10.7-10.2v-157.7c10,9.7,21.6,17,34.6,21.8c13.1,4.8,27.3,7.2,42.7,7.2
			c29.2,0,49.1-8.2,59.9-24.5c10.7-16.3,16.1-39.4,16.1-69.1V8639c0-3.3,0.9-6.1,2.6-8.2c1.7-2.1,4.2-3.4,7.4-4l23.7-4.4v-31.1
			h-136.7v30.9l14.6,4.4c3.2,1.2,5.6,2.7,7.3,4.6c1.7,1.9,2.5,4.5,2.5,7.8v103c0,20.3-3,34.7-8.9,43.2c-5.9,8.5-15.4,12.7-28.3,12.7
			c-6,0-12.2-0.9-18.6-2.6c-6.5-1.7-12.8-4.4-18.9-7.8V8639c0-3.3,0.8-6,2.4-7.8c1.6-1.9,4-3.4,7.2-4.6L7329.1,8622.3"/>
	</g>
</g>
</svg>
